<?xml version="1.0" encoding="utf-8"?>
<!-- Generator: Adobe Illustrator 16.0.0, SVG Export Plug-In . SVG Version: 6.00 Build 0)  -->
<!DOCTYPE svg PUBLIC "-//W3C//DTD SVG 1.1//EN" "http://www.w3.org/Graphics/SVG/1.1/DTD/svg11.dtd">
<svg version="1.1" xmlns="http://www.w3.org/2000/svg" xmlns:xlink="http://www.w3.org/1999/xlink" x="0px" y="0px" width="118px"
	 height="113px" viewBox="0 0 118 113" enable-background="new 0 0 118 113" xml:space="preserve">
<g id="Layer_2">
	<rect fill="#FFFFFF" width="118" height="113"/>
</g>
<g id="Layer_1">
	<g>
		<g>
			<g>
				<path fill="#231F20" d="M18.359,67.301h1.382l4.216,9.841l4.292-9.841h1.391l-5.546,12.732h-0.274L18.359,67.301z"/>
				<path fill="#231F20" d="M31.924,67.266h1.27v12.735h-1.27V67.266z"/>
				<path fill="#231F20" d="M47.961,69.703l-1.013,0.756c-0.548-0.723-1.212-1.266-1.986-1.637
					c-0.776-0.369-1.628-0.553-2.555-0.553c-1.018,0-1.959,0.242-2.824,0.729c-0.865,0.487-1.535,1.14-2.014,1.962
					c-0.478,0.822-0.716,1.747-0.716,2.776c0,1.552,0.531,2.801,1.596,3.747c1.065,0.95,2.407,1.423,4.028,1.423
					c1.785,0,3.276-0.698,4.471-2.096l1.013,0.763c-0.635,0.807-1.428,1.431-2.377,1.873c-0.95,0.441-2.008,0.66-3.178,0.66
					c-2.23,0-3.991-0.741-5.279-2.225c-1.076-1.252-1.614-2.673-1.614-4.258c0-1.859,0.654-3.428,1.962-4.704
					c1.308-1.276,2.943-1.914,4.906-1.914c1.192,0,2.265,0.236,3.225,0.706C46.565,68.188,47.35,68.852,47.961,69.703z"/>
				<path fill="#231F20" d="M49.946,68.502v-1.236h6.988v1.236h-2.849v11.497h-1.297V68.502H49.946z"/>
				<path fill="#231F20" d="M64.121,67.041c1.923,0,3.533,0.645,4.83,1.933c1.297,1.289,1.945,2.874,1.945,4.757
					c0,1.861-0.646,3.389-1.942,4.586c-1.293,1.194-2.87,1.793-4.729,1.793c-1.889,0-3.481-0.644-4.782-1.936
					c-1.3-1.291-1.948-2.75-1.948-4.384c0-1.219,0.295-2.352,0.882-3.4c0.59-1.048,1.397-1.867,2.423-2.459
					C61.822,67.34,62.93,67.041,64.121,67.041z M64.171,68.297c-0.938,0-1.83,0.244-2.673,0.734s-1.502,1.15-1.971,1.981
					c-0.47,0.833-0.703,1.759-0.703,2.777c0,1.512,0.522,2.737,1.568,3.676c1.043,0.938,2.304,1.408,3.779,1.408
					c0.984,0,1.899-0.241,2.74-0.723c0.842-0.48,1.499-1.133,1.967-1.961s0.704-1.646,0.704-2.46c0-1.009-0.236-1.919-0.704-2.738
					s-1.13-1.473-1.983-1.963C66.039,68.541,65.135,68.297,64.171,68.297z"/>
				<path fill="#231F20" d="M73.497,67.266h2.531c1.415,0,2.373,0.057,2.877,0.172c0.757,0.171,1.371,0.542,1.847,1.112
					c0.475,0.569,0.714,1.27,0.714,2.099c0,0.698-0.164,1.31-0.49,1.83c-0.327,0.519-0.793,0.918-1.403,1.188
					c-0.61,0.273-1.14,0.409-1.585,0.409l3.649,5.926h-1.563l-3.648-5.926h-1.658v5.926h-1.271V67.266z M74.768,68.511v4.328
					l2.188,0.016c0.847,0,1.475-0.081,1.884-0.24c0.412-0.16,0.728-0.417,0.953-0.772c0.228-0.354,0.34-0.751,0.34-1.193
					c0-0.423-0.114-0.809-0.349-1.159c-0.23-0.35-0.532-0.6-0.903-0.751c-0.374-0.151-0.996-0.228-1.873-0.228H74.768z"/>
				<path fill="#231F20" d="M84.692,67.266h1.271v12.735h-1.271V67.266z"/>
				<path fill="#231F20" d="M94.778,67.232l5.935,12.729h-1.355l-2.002-4.197H91.86l-1.984,4.197H88.45l6.02-12.729H94.778z
					 M94.626,69.929l-2.197,4.616h4.361L94.626,69.929z"/>
			</g>
			<g>
				<path fill="#6E6F71" d="M27.967,85.119l-0.712,0.676c-0.513-0.504-1.074-0.887-1.684-1.146c-0.609-0.26-1.206-0.391-1.787-0.391
					c-0.72,0-1.405,0.177-2.055,0.532c-0.65,0.355-1.156,0.835-1.515,1.438c-0.36,0.605-0.539,1.178-0.539,1.723
					c0,0.695,0.186,1.353,0.558,1.973c0.372,0.625,0.885,1.112,1.541,1.463c0.655,0.354,1.37,0.532,2.147,0.532
					c0.942,0,1.74-0.268,2.395-0.8c0.654-0.535,1.045-1.225,1.168-2.071h-2.933v-0.886h3.955c-0.007,1.422-0.43,2.548-1.261,3.385
					c-0.833,0.834-1.951,1.252-3.356,1.252c-1.694,0-3.038-0.577-4.029-1.734c-0.763-0.894-1.146-1.924-1.146-3.095
					c0-0.872,0.218-1.648,0.654-2.329c0.437-0.684,1.036-1.236,1.801-1.662c0.765-0.425,1.628-0.639,2.59-0.639
					c0.778,0,1.508,0.142,2.194,0.425C26.638,84.048,27.309,84.5,27.967,85.119z"/>
				<path fill="#6E6F71" d="M34.63,83.365c1.388,0,2.55,0.463,3.487,1.396c0.936,0.928,1.404,2.073,1.404,3.432
					c0,1.346-0.468,2.447-1.4,3.312c-0.934,0.863-2.073,1.295-3.416,1.295c-1.363,0-2.514-0.466-3.453-1.398
					c-0.938-0.932-1.407-1.986-1.407-3.163c0-0.881,0.214-1.699,0.639-2.454c0.425-0.755,1.009-1.349,1.748-1.777
					C32.972,83.579,33.771,83.365,34.63,83.365z M34.667,84.271c-0.679,0-1.321,0.176-1.931,0.531
					c-0.61,0.352-1.083,0.829-1.422,1.431c-0.338,0.601-0.509,1.269-0.509,2.005c0,1.091,0.377,1.974,1.132,2.653
					c0.754,0.678,1.664,1.016,2.73,1.016c0.71,0,1.37-0.172,1.977-0.522c0.607-0.347,1.081-0.819,1.419-1.416
					c0.339-0.599,0.509-1.189,0.509-1.776c0-0.728-0.169-1.384-0.509-1.975c-0.339-0.593-0.815-1.065-1.431-1.415
					C36.017,84.447,35.361,84.271,34.667,84.271z"/>
				<path fill="#6E6F71" d="M41.349,83.503h0.924v8.304h3.533v0.886h-4.458V83.503z"/>
				<path fill="#6E6F71" d="M47.248,83.527h5.065v0.905h-4.146v2.875h2.461v0.904h-2.461v4.506h-0.919V83.527z"/>
				<path fill="#6E6F71" d="M57.023,83.527h1.828c1.023,0,1.712,0.043,2.077,0.124c0.545,0.126,0.989,0.391,1.33,0.802
					c0.346,0.412,0.518,0.916,0.518,1.518c0,0.502-0.12,0.943-0.354,1.319s-0.573,0.662-1.013,0.859
					c-0.439,0.196-0.821,0.293-1.144,0.293l2.634,4.277h-1.126l-2.635-4.277H57.94v4.277h-0.917V83.527L57.023,83.527z
					 M57.939,84.426v3.125l1.581,0.012c0.612,0,1.066-0.059,1.361-0.175c0.295-0.115,0.524-0.301,0.687-0.557
					c0.163-0.257,0.244-0.543,0.244-0.86c0-0.309-0.084-0.587-0.249-0.838c-0.168-0.254-0.385-0.433-0.654-0.543
					c-0.271-0.107-0.719-0.164-1.352-0.164H57.939z"/>
				<path fill="#6E6F71" d="M64.733,83.527h5.268v0.905H65.65v2.875h2.652V88.2H65.65v3.608h4.313v0.909h-5.23V83.527z"/>
				<path fill="#6E6F71" d="M71.055,90.858l0.781-0.472c0.549,1.013,1.184,1.52,1.9,1.52c0.313,0,0.604-0.072,0.877-0.217
					c0.271-0.144,0.478-0.337,0.616-0.576c0.143-0.239,0.211-0.495,0.211-0.77c0-0.305-0.102-0.606-0.309-0.903
					c-0.289-0.409-0.817-0.826-1.582-1.252c-0.767-0.577-1.241-0.998-1.424-1.259c-0.327-0.428-0.491-0.898-0.491-1.405
					c0-0.402,0.095-0.765,0.286-1.092c0.19-0.326,0.46-0.584,0.807-0.776c0.351-0.193,0.729-0.289,1.139-0.289
					c0.429,0,0.833,0.108,1.209,0.323c0.376,0.22,0.775,0.612,1.196,1.188l-0.75,0.564c-0.345-0.453-0.638-0.756-0.879-0.902
					c-0.247-0.146-0.513-0.221-0.803-0.221c-0.366,0-0.667,0.112-0.903,0.338c-0.236,0.227-0.354,0.502-0.354,0.828
					c0,0.199,0.044,0.393,0.124,0.583c0.085,0.189,0.238,0.394,0.461,0.608c0.119,0.121,0.516,0.426,1.188,0.922
					c0.796,0.589,1.341,1.073,1.637,1.456c0.293,0.385,0.443,0.807,0.443,1.267c0,0.669-0.256,1.249-0.76,1.741
					c-0.508,0.493-1.12,0.737-1.844,0.737c-0.563,0-1.069-0.147-1.525-0.446C71.852,92.057,71.435,91.558,71.055,90.858z"/>
				<path fill="#6E6F71" d="M82.564,83.365c1.389,0,2.552,0.463,3.487,1.396c0.935,0.928,1.401,2.073,1.401,3.432
					c0,1.346-0.465,2.447-1.4,3.312c-0.935,0.863-2.072,1.295-3.414,1.295c-1.364,0-2.517-0.466-3.453-1.398
					c-0.938-0.932-1.406-1.986-1.406-3.163c0-0.881,0.214-1.699,0.638-2.454c0.426-0.755,1.009-1.349,1.747-1.777
					C80.905,83.579,81.705,83.365,82.564,83.365z M82.601,84.271c-0.678,0-1.319,0.176-1.932,0.531
					c-0.608,0.352-1.085,0.829-1.422,1.431c-0.338,0.601-0.51,1.269-0.51,2.005c0,1.091,0.38,1.974,1.134,2.653
					c0.753,0.678,1.664,1.016,2.729,1.016c0.713,0,1.371-0.172,1.977-0.522c0.608-0.347,1.083-0.819,1.42-1.416
					c0.339-0.599,0.509-1.189,0.509-1.776c0-0.728-0.17-1.384-0.509-1.975c-0.337-0.593-0.814-1.065-1.432-1.415
					C83.951,84.447,83.295,84.271,82.601,84.271z"/>
				<path fill="#6E6F71" d="M89.331,83.527h1.83c1.019,0,1.712,0.043,2.074,0.124c0.547,0.126,0.991,0.391,1.335,0.802
					c0.344,0.412,0.516,0.916,0.516,1.518c0,0.502-0.119,0.943-0.355,1.319c-0.234,0.376-0.571,0.662-1.011,0.859
					c-0.441,0.196-0.822,0.293-1.146,0.293l2.635,4.277h-1.127l-2.635-4.277H90.25v4.277h-0.917v-9.192H89.331z M90.249,84.426
					v3.125l1.583,0.012c0.608,0,1.063-0.059,1.358-0.175c0.295-0.115,0.524-0.301,0.688-0.557c0.162-0.257,0.244-0.543,0.244-0.86
					c0-0.309-0.086-0.587-0.249-0.838c-0.17-0.254-0.389-0.433-0.656-0.543c-0.269-0.107-0.719-0.164-1.351-0.164H90.249z"/>
				<path fill="#6E6F71" d="M95.686,84.419v-0.892h5.046v0.892h-2.057v8.299h-0.938v-8.299H95.686z"/>
			</g>
			<g>
				<path fill="#231F20" d="M37.801,104.268l0.554-0.333c0.391,0.718,0.84,1.076,1.35,1.076c0.221,0,0.425-0.051,0.619-0.154
					s0.34-0.237,0.442-0.407c0.098-0.17,0.148-0.353,0.148-0.544c0-0.22-0.073-0.433-0.221-0.644
					c-0.204-0.291-0.578-0.586-1.121-0.89c-0.545-0.408-0.882-0.709-1.01-0.892c-0.232-0.306-0.349-0.638-0.349-0.998
					c0-0.285,0.067-0.542,0.204-0.774c0.133-0.231,0.326-0.416,0.572-0.552c0.248-0.136,0.516-0.204,0.807-0.204
					c0.305,0,0.591,0.078,0.858,0.231c0.265,0.155,0.55,0.435,0.848,0.842l-0.533,0.401c-0.243-0.322-0.452-0.536-0.624-0.642
					c-0.173-0.104-0.363-0.157-0.568-0.157c-0.26,0-0.474,0.08-0.641,0.24c-0.167,0.16-0.25,0.356-0.25,0.586
					c0,0.143,0.028,0.28,0.088,0.416c0.059,0.133,0.166,0.276,0.324,0.429c0.086,0.087,0.367,0.304,0.845,0.654
					c0.563,0.418,0.95,0.763,1.159,1.035c0.21,0.273,0.314,0.57,0.314,0.896c0,0.476-0.179,0.889-0.538,1.234
					c-0.36,0.35-0.795,0.524-1.309,0.524c-0.398,0-0.759-0.105-1.081-0.315C38.366,105.116,38.07,104.765,37.801,104.268z"/>
				<path fill="#231F20" d="M42.887,99.066h1.297c0.724,0,1.215,0.03,1.473,0.09c0.387,0.088,0.702,0.277,0.945,0.568
					c0.243,0.292,0.365,0.651,0.365,1.075c0,0.358-0.083,0.671-0.25,0.938c-0.168,0.265-0.406,0.469-0.719,0.607
					c-0.312,0.139-0.582,0.209-0.811,0.209l1.87,3.035h-0.8l-1.869-3.035h-0.849v3.035h-0.651V99.066z M43.538,99.704v2.216
					l1.122,0.009c0.434,0,0.756-0.039,0.964-0.122c0.209-0.081,0.373-0.214,0.489-0.395c0.115-0.183,0.173-0.387,0.173-0.612
					c0-0.216-0.06-0.414-0.178-0.594c-0.119-0.18-0.275-0.307-0.465-0.385c-0.189-0.077-0.51-0.117-0.958-0.117H43.538z"/>
				<path fill="#231F20" d="M48.259,99.066h0.652v6.521h-0.652V99.066z"/>
				<path fill="#231F20" d="M52.814,99.049h0.655v5.893h2.505v0.628h-3.161V99.049z"/>
				<path fill="#231F20" d="M59.667,99.049l3.038,6.521h-0.694l-1.023-2.15h-2.814l-1.015,2.15h-0.729l3.082-6.521H59.667z
					 M59.589,100.429l-1.126,2.366h2.233L59.589,100.429z"/>
				<path fill="#231F20" d="M63.717,105.588v-6.521h0.141l4.333,4.991v-4.991h0.644v6.521h-0.149l-4.289-4.932v4.932H63.717z"/>
				<path fill="#231F20" d="M70.32,99.085h0.664v2.515l2.866-2.515h0.985l-2.415,2.228l2.656,4.293H74.22l-2.438-3.798l-0.798,0.704
					v3.094H70.32V99.085z"/>
				<path fill="#231F20" d="M78.555,99.049l3.037,6.521h-0.693l-1.024-2.15H77.06l-1.018,2.15h-0.729l3.084-6.521H78.555z
					 M78.476,100.429l-1.124,2.366h2.232L78.476,100.429z"/>
			</g>
		</g>
		<g>
			<path fill="#86C87A" d="M74.203,45.453l30.556-26.561c-4.431-1.252-9.104-1.922-13.933-1.922
				c-11.765,0-22.602,3.975-31.24,10.651C65.712,32.356,70.735,38.45,74.203,45.453z"/>
			<path fill="#00A89C" d="M59.133,27.279C50.567,20.81,39.907,16.97,28.345,16.97c-4.831,0-9.503,0.67-13.934,1.922l28.605,24.866
				C47.067,37.116,52.591,31.473,59.133,27.279z"/>
			<path fill="#077680" d="M44.968,45.453l14.616,12.706l14.619-12.706c-3.468-7.002-8.491-13.096-14.619-17.833
				C53.458,32.356,48.434,38.45,44.968,45.453z"/>
			<path fill="#F15B2A" d="M76.81,7.353c-1.824,0-3.154-0.159-5.041,1.511c-1.408,1.246-2.604,2.441-4.904,1.683
				c0.555,2.989,3.44,3.395,5.125,3.066c1.337-0.26,2.62-1.039,4.82,0C76.81,11.174,76.81,7.353,76.81,7.353z"/>
			<path fill="#077680" d="M77.989,26.776c-0.193,0-0.387-0.157-0.387-0.348V7.349C77.603,7.156,77.798,7,77.989,7
				s0.388,0.156,0.388,0.349v19.079C78.377,26.62,78.181,26.776,77.989,26.776z"/>
		</g>
	</g>
</g>
</svg>
